<svg xmlns="http://www.w3.org/2000/svg" xmlns:xlink="http://www.w3.org/1999/xlink" width="512" height="320" viewBox="0 0 512 320"><rect width="100%" height="100%" fill="#DDDDDD"/><path d="M114.29 142.78L112.53 153.17Q114.19 152.82 115.71 152.67Q117.22 152.51 118.64 152.51L118.64 152.51Q122.57 152.51 125.57 153.69Q128.57 154.86 130.61 156.93Q132.65 159.00 133.68 161.78Q134.72 164.55 134.72 167.76L134.72 167.76Q134.72 171.73 133.32 175.01Q131.92 178.29 129.44 180.61Q126.95 182.94 123.55 184.22Q120.16 185.50 116.15 185.50L116.15 185.50Q113.81 185.50 111.70 185.01Q109.60 184.53 107.75 183.72Q105.91 182.91 104.34 181.86Q102.77 180.80 101.53 179.63L101.53 179.63L104.15 176.01Q104.98 174.84 106.32 174.84L106.32 174.84Q107.18 174.84 108.08 175.39Q108.98 175.94 110.13 176.59Q111.29 177.25 112.86 177.80Q114.43 178.35 116.64 178.35L116.64 178.35Q118.98 178.35 120.78 177.60Q122.57 176.84 123.76 175.47Q124.95 174.11 125.56 172.23Q126.16 170.35 126.16 168.14L126.16 168.14Q126.16 164.07 123.80 161.78Q121.43 159.48 116.81 159.48L116.81 159.48Q113.26 159.48 109.53 160.79L109.53 160.79L104.22 159.28L108.36 135.06L132.99 135.06L132.99 138.68Q132.99 140.51 131.85 141.65Q130.71 142.78 127.99 142.78L127.99 142.78L114.29 142.78ZM165.28 178.56L174.25 178.56L174.25 184.94L146.65 184.94L146.65 178.56L156.76 178.56L156.76 149.48Q156.76 147.75 156.86 145.92L156.86 145.92L149.69 151.93Q149.07 152.41 148.46 152.53Q147.86 152.65 147.33 152.55Q146.79 152.44 146.38 152.19Q145.96 151.93 145.76 151.62L145.76 151.62L143.06 147.93L158.28 134.99L165.28 134.99L165.28 178.56ZM199.61 177.01L212.41 177.01Q213.79 177.01 214.60 177.78Q215.41 178.56 215.41 179.84L215.41 179.84L215.41 184.94L181.19 184.94L181.19 182.11Q181.19 181.25 181.55 180.30Q181.91 179.35 182.70 178.60L182.70 178.60L197.85 163.42Q199.75 161.48 201.25 159.72Q202.75 157.96 203.75 156.24Q204.75 154.51 205.29 152.74Q205.82 150.96 205.82 148.99L205.82 148.99Q205.82 147.20 205.30 145.84Q204.78 144.48 203.84 143.54Q202.89 142.61 201.56 142.15Q200.23 141.68 198.57 141.68L198.57 141.68Q197.06 141.68 195.76 142.11Q194.47 142.54 193.47 143.32Q192.47 144.10 191.78 145.13Q191.09 146.17 190.74 147.41L190.74 147.41Q190.16 148.99 189.23 149.51Q188.29 150.03 186.53 149.75L186.53 149.75L182.05 148.96Q182.57 145.37 184.05 142.66Q185.53 139.96 187.76 138.14Q189.98 136.33 192.87 135.42Q195.75 134.50 199.06 134.50L199.06 134.50Q202.51 134.50 205.37 135.52Q208.23 136.54 210.27 138.40Q212.31 140.27 213.44 142.89Q214.58 145.51 214.58 148.72L214.58 148.72Q214.58 151.48 213.77 153.82Q212.96 156.17 211.60 158.31Q210.24 160.45 208.41 162.45Q206.58 164.45 204.58 166.52L204.58 166.52L193.33 178.01Q194.95 177.53 196.56 177.27Q198.16 177.01 199.61 177.01L199.61 177.01ZM271.65 173.52L267.13 177.97L255.43 166.28L243.63 178.04L239.11 173.59L250.91 161.76L239.66 150.51L244.15 146.03L255.40 157.27L266.57 146.10L271.13 150.58L259.92 161.79L271.65 173.52ZM300.35 149.75L295.86 148.96Q296.38 145.37 297.87 142.66Q299.35 139.96 301.57 138.14Q303.80 136.33 306.68 135.42Q309.56 134.50 312.87 134.50L312.87 134.50Q316.32 134.50 319.10 135.49Q321.88 136.47 323.84 138.21Q325.81 139.96 326.86 142.30Q327.92 144.65 327.92 147.37L327.92 147.37Q327.92 149.75 327.38 151.56Q326.85 153.38 325.85 154.72Q324.84 156.07 323.36 157.00Q321.88 157.93 320.01 158.55L320.01 158.55Q324.50 159.97 326.71 162.86Q328.92 165.76 328.92 170.14L328.92 170.14Q328.92 173.87 327.54 176.73Q326.16 179.60 323.81 181.55Q321.46 183.49 318.38 184.50Q315.29 185.50 311.84 185.50L311.84 185.50Q308.08 185.50 305.28 184.63Q302.49 183.77 300.42 182.08Q298.35 180.39 296.90 177.94Q295.45 175.49 294.42 172.28L294.42 172.28L298.18 170.73Q299.66 170.11 300.95 170.40Q302.25 170.70 302.83 171.80L302.83 171.80Q303.45 173.01 304.20 174.18Q304.94 175.35 305.97 176.27Q307.01 177.18 308.41 177.75Q309.80 178.32 311.73 178.32L311.73 178.32Q313.91 178.32 315.53 177.61Q317.15 176.91 318.24 175.77Q319.32 174.63 319.86 173.23Q320.39 171.83 320.39 170.42L320.39 170.42Q320.39 168.63 320.01 167.16Q319.64 165.69 318.43 164.66Q317.22 163.62 314.96 163.04Q312.70 162.45 308.91 162.45L308.91 162.45L308.91 156.38Q312.05 156.34 314.12 155.79Q316.19 155.24 317.41 154.26Q318.63 153.27 319.12 151.89Q319.60 150.51 319.60 148.86L319.60 148.86Q319.60 145.34 317.63 143.51Q315.67 141.68 312.39 141.68L312.39 141.68Q310.87 141.68 309.60 142.11Q308.32 142.54 307.30 143.32Q306.28 144.10 305.59 145.13Q304.90 146.17 304.56 147.41L304.56 147.41Q303.97 148.99 303.02 149.51Q302.07 150.03 300.35 149.75L300.35 149.75ZM353.20 177.01L366.00 177.01Q367.38 177.01 368.19 177.78Q369.00 178.56 369.00 179.84L369.00 179.84L369.00 184.94L334.78 184.94L334.78 182.11Q334.78 181.25 335.14 180.30Q335.51 179.35 336.30 178.60L336.30 178.60L351.44 163.42Q353.34 161.48 354.84 159.72Q356.34 157.96 357.34 156.24Q358.34 154.51 358.88 152.74Q359.41 150.96 359.41 148.99L359.41 148.99Q359.41 147.20 358.90 145.84Q358.38 144.48 357.43 143.54Q356.48 142.61 355.15 142.15Q353.82 141.68 352.17 141.68L352.17 141.68Q350.65 141.68 349.36 142.11Q348.06 142.54 347.06 143.32Q346.06 144.10 345.37 145.13Q344.68 146.17 344.34 147.41L344.34 147.41Q343.75 148.99 342.82 149.51Q341.89 150.03 340.13 149.75L340.13 149.75L335.64 148.96Q336.16 145.37 337.64 142.66Q339.13 139.96 341.35 138.14Q343.58 136.33 346.46 135.42Q349.34 134.50 352.65 134.50L352.65 134.50Q356.10 134.50 358.97 135.52Q361.83 136.54 363.86 138.40Q365.90 140.27 367.04 142.89Q368.18 145.51 368.18 148.72L368.18 148.72Q368.18 151.48 367.37 153.82Q366.56 156.17 365.19 158.31Q363.83 160.45 362.00 162.45Q360.17 164.45 358.17 166.52L358.17 166.52L346.92 178.01Q348.55 177.53 350.15 177.27Q351.75 177.01 353.20 177.01L353.20 177.01ZM410.47 160.00L410.47 160.00Q410.47 166.52 409.08 171.33Q407.68 176.15 405.21 179.29Q402.75 182.43 399.38 183.96Q396.02 185.50 392.12 185.50L392.12 185.50Q388.22 185.50 384.89 183.96Q381.56 182.43 379.11 179.29Q376.66 176.15 375.28 171.33Q373.90 166.52 373.90 160.00L373.90 160.00Q373.90 153.45 375.28 148.65Q376.66 143.85 379.11 140.71Q381.56 137.58 384.89 136.04Q388.22 134.50 392.12 134.50L392.12 134.50Q396.02 134.50 399.38 136.04Q402.75 137.58 405.21 140.71Q407.68 143.85 409.08 148.65Q410.47 153.45 410.47 160.00ZM401.68 160.00L401.68 160.00Q401.68 154.58 400.88 151.03Q400.09 147.48 398.76 145.37Q397.43 143.27 395.71 142.42Q393.98 141.58 392.12 141.58L392.12 141.58Q390.29 141.58 388.58 142.42Q386.88 143.27 385.56 145.37Q384.25 147.48 383.48 151.03Q382.70 154.58 382.70 160.00L382.70 160.00Q382.70 165.42 383.48 168.97Q384.25 172.52 385.56 174.63Q386.88 176.73 388.58 177.58Q390.29 178.42 392.12 178.42L392.12 178.42Q393.98 178.42 395.71 177.58Q397.43 176.73 398.76 174.63Q400.09 172.52 400.88 168.97Q401.68 165.42 401.68 160.00Z" fill="#999999"/></svg>